<?xml version="1.0" encoding="UTF-8" standalone="no"?>
<svg
   xmlns:dc="http://purl.org/dc/elements/1.1/"
   xmlns:cc="http://creativecommons.org/ns#"
   xmlns:rdf="http://www.w3.org/1999/02/22-rdf-syntax-ns#"
   xmlns:svg="http://www.w3.org/2000/svg"
   xmlns="http://www.w3.org/2000/svg"
   viewBox="0 0 627.83734 320.56934"
   height="320.56934"
   width="627.83734"
   xml:space="preserve"
   id="svg2"
   version="1.1"><metadata
     id="metadata8"><rdf:RDF><cc:Work
         rdf:about=""><dc:format>image/svg+xml</dc:format><dc:type
           rdf:resource="http://purl.org/dc/dcmitype/StillImage" /></cc:Work></rdf:RDF></metadata><defs
     id="defs6"><clipPath
       id="clipPath18"
       clipPathUnits="userSpaceOnUse"><path
         id="path16"
         d="M 0,240.427 H 470.878 V 0 H 0 Z" /></clipPath></defs><g
     transform="matrix(1.3333333,0,0,-1.3333333,0,320.56933)"
     id="g10"><g
       id="g12"><g
         clip-path="url(#clipPath18)"
         id="g14"><g
           transform="translate(247.1244,110.7769)"
           id="g20"><path
             id="path22"
             style="fill:#1f191a;fill-opacity:1;fill-rule:nonzero;stroke:none"
             d="m 0,0 c 0,-0.683 0.105,-1.312 0.209,-1.89 0.84,-3.201 3.622,-5.405 6.928,-5.405 4.882,0 7.716,3.988 7.716,9.814 0,5.091 -2.677,9.447 -7.558,9.447 -3.149,0 -6.088,-2.257 -6.981,-5.72 C 0.157,5.668 0,4.986 0,4.356 Z m -4.566,6.77 c 0,3.254 -0.105,5.878 -0.21,8.293 h 4.146 l 0.21,-4.356 h 0.105 c 1.889,3.096 4.881,4.933 9.027,4.933 6.141,0 10.76,-5.196 10.76,-12.911 0,-9.132 -5.564,-13.646 -11.547,-13.646 -3.359,0 -6.298,1.47 -7.82,3.989 H 0 v -13.803 h -4.566 z" /></g><path
           id="path24"
           style="fill:#1f191a;fill-opacity:1;fill-rule:nonzero;stroke:none"
           d="m 272.419,137.701 h 4.618 v -37.264 h -4.618 z" /><g
           transform="translate(298.1879,113.401)"
           id="g26"><path
             id="path28"
             style="fill:#1f191a;fill-opacity:1;fill-rule:nonzero;stroke:none"
             d="m 0,0 c -5.039,0.105 -10.76,-0.787 -10.76,-5.721 0,-2.991 1.995,-4.408 4.357,-4.408 3.306,0 5.406,2.099 6.14,4.251 C -0.104,-5.406 0,-4.881 0,-4.409 Z M 0.682,-12.964 0.315,-9.762 H 0.157 c -1.417,-1.994 -4.145,-3.779 -7.767,-3.779 -5.144,0 -7.768,3.622 -7.768,7.295 0,6.141 5.458,9.5 15.274,9.448 v 0.525 c 0,2.099 -0.579,5.877 -5.774,5.877 -2.362,0 -4.829,-0.734 -6.613,-1.889 l -1.05,3.044 c 2.1,1.365 5.144,2.257 8.345,2.257 7.767,0 9.657,-5.301 9.657,-10.392 v -9.499 c 0,-2.205 0.104,-4.357 0.42,-6.089 z" /></g><g
           transform="translate(315.4545,133.1348)"
           id="g30"><path
             id="path32"
             style="fill:#1f191a;fill-opacity:1;fill-rule:nonzero;stroke:none"
             d="m 0,0 v -7.295 h 6.612 v -3.517 H 0 V -24.51 c 0,-3.149 0.892,-4.933 3.464,-4.933 1.206,0 2.098,0.157 2.676,0.315 l 0.21,-3.465 c -0.892,-0.367 -2.309,-0.629 -4.094,-0.629 -2.152,0 -3.884,0.682 -4.985,1.942 -1.313,1.364 -1.786,3.621 -1.786,6.613 v 13.855 H -8.45 v 3.517 h 3.935 v 6.088 z" /></g><g
           transform="translate(340.6449,113.401)"
           id="g34"><path
             id="path36"
             style="fill:#1f191a;fill-opacity:1;fill-rule:nonzero;stroke:none"
             d="m 0,0 c -5.039,0.105 -10.76,-0.787 -10.76,-5.721 0,-2.991 1.995,-4.408 4.358,-4.408 3.305,0 5.405,2.099 6.139,4.251 C -0.104,-5.406 0,-4.881 0,-4.409 Z M 0.683,-12.964 0.315,-9.762 H 0.157 c -1.417,-1.994 -4.145,-3.779 -7.767,-3.779 -5.144,0 -7.768,3.622 -7.768,7.295 0,6.141 5.458,9.5 15.274,9.448 v 0.525 c 0,2.099 -0.579,5.877 -5.774,5.877 -2.362,0 -4.828,-0.734 -6.613,-1.889 l -1.05,3.044 c 2.1,1.365 5.144,2.257 8.345,2.257 7.767,0 9.657,-5.301 9.657,-10.392 v -9.499 c 0,-2.205 0.105,-4.357 0.42,-6.089 z" /></g><g
           transform="translate(217.5087,133.4151)"
           id="g38"><path
             id="path40"
             style="fill:#ff1a25;fill-opacity:1;fill-rule:nonzero;stroke:none"
             d="m 0,0 c -2.601,-7.405 -11.522,-28.074 -16.926,-28.127 -5.409,-0.054 -14.631,20.438 -17.374,27.79 -1.648,4.41 -6.682,1.206 -5.037,-3.202 2.949,-7.908 14.039,-31.76 22.532,-31.465 8.492,-0.128 19.108,23.937 21.907,31.901 C 6.657,1.337 1.57,4.441 0,0 m 14.917,-1.729 c 0,4.742 -5.957,4.718 -5.957,0.079 v -29.912 c 0,-4.485 5.96,-4.652 5.96,-0.168 z M -82.335,-15.32 c -0.027,0.278 -0.075,0.544 -0.118,0.813 -0.317,1.74 -0.861,3.317 -1.61,4.733 -0.016,0.032 -0.035,0.06 -0.052,0.09 -0.196,0.366 -0.411,0.714 -0.633,1.059 -0.149,0.229 -0.299,0.45 -0.452,0.661 -0.103,0.144 -0.21,0.285 -0.318,0.425 -0.22,0.288 -0.437,0.558 -0.651,0.807 -0.237,0.272 -0.477,0.542 -0.73,0.798 -0.054,0.056 -0.107,0.111 -0.159,0.163 -9.669,9.553 -30.732,8.575 -36.752,6.039 -4.073,-1.71 -2.665,-6.759 1.793,-4.789 7.25,1.836 14.25,1.801 21.407,0 5.845,-1.465 11.97,-6.581 11.97,-12.074 -0.418,-13.678 -18.514,-14.221 -25.85,-12.443 v 17.018 c 0,4.063 -5.23,4.097 -5.23,0.033 v -17.11 c 0,-3.437 1.773,-4.682 4.117,-5.218 5.522,-1.265 28.705,-2.615 32.828,13.859 0.082,0.317 0.14,0.624 0.2,0.933 0.056,0.281 0.116,0.559 0.161,0.85 0.156,1.115 0.184,2.178 0.099,3.178 -0.007,0.058 -0.013,0.118 -0.02,0.175 m 24.616,17.286 c -9.192,0.262 -21.057,-23.629 -24.202,-31.55 -1.766,-4.419 3.694,-7.598 5.46,-3.181 2.921,7.358 12.899,27.886 18.751,27.853 5.845,-0.033 15.488,-20.672 18.338,-28.062 1.71,-4.437 7.208,-1.32 5.495,3.119 -3.059,7.956 -14.665,31.979 -23.842,31.821" /></g><g
           transform="translate(370.3148,149.4107)"
           id="g42"><path
             id="path44"
             style="fill:#ff1a25;fill-opacity:1;fill-rule:nonzero;stroke:none"
             d="m 0,0 c -4.636,3.921 -12.53,9.807 -14.861,11.535 0.306,3.59 0.943,7.472 1.771,10.777 0.955,3.777 1.779,7.039 0.004,9.319 -1.198,1.538 -3.293,2.255 -6.592,2.255 H -31.99 c -2.799,0 -4.833,-0.809 -6.045,-2.404 -0.908,-1.193 -1.277,-2.791 -1.086,-4.601 -13.228,7.209 -24.681,11.477 -31.024,11.515 h -0.017 c -6.816,-0.041 -19.52,-4.958 -33.984,-13.154 -2.046,-1.163 -14.551,-8.542 -20.61,-13.207 -0.1,-0.073 -10.045,-7.267 -15.548,-11.889 -2.646,-2.226 -4.581,-4.288 -5.994,-6.193 l 0.01,-0.009 c -0.215,-0.262 -0.361,-0.585 -0.361,-0.95 0,-0.84 0.679,-1.52 1.519,-1.52 0.469,0 0.873,0.226 1.151,0.561 l 0.015,-0.014 c 0,0 0.427,0.594 0.724,0.995 1.273,1.57 2.876,3.194 4.849,4.854 5.419,4.55 15.277,11.683 15.412,11.781 5.962,4.59 18.283,11.858 20.3,13.004 14.034,7.953 26.193,12.725 32.526,12.768 6.329,-0.043 18.482,-4.815 32.516,-12.768 0.515,-0.292 1.151,-0.251 1.622,0.102 0.474,0.353 0.692,0.952 0.559,1.527 -0.082,0.35 -0.188,0.71 -0.293,1.07 -0.059,0.198 -0.118,0.396 -0.173,0.602 -0.258,0.928 -0.567,2.646 0.255,3.727 0.771,1.016 2.426,1.229 3.677,1.229 h 12.312 c 2.213,0 3.681,-0.383 4.245,-1.107 0.884,-1.135 0.193,-3.869 -0.54,-6.766 -0.932,-3.72 -1.632,-8.13 -1.919,-12.102 -0.037,-0.51 0.191,-1.003 0.603,-1.305 0.1,-0.073 9.989,-7.353 15.371,-11.904 6.544,-5.517 9.319,-10.66 7.813,-14.484 -1.671,-4.241 -8.626,-6.788 -17.301,-6.358 -1.027,0.048 -2.037,0.1 -3.034,0.151 l -1.876,0.094 c -0.409,0.019 -0.817,-0.132 -1.113,-0.421 -0.296,-0.288 -0.458,-0.688 -0.448,-1.101 0.121,-4.732 1.517,-14.276 9.561,-25.103 7.209,-8.617 8.275,-18.59 2.922,-27.363 -6.394,-10.485 -22.416,-18.912 -43.794,-14.1 -0.263,0.061 -0.541,0.046 -0.796,-0.039 -5.831,-1.946 -15.305,-2.821 -20.169,-2.821 -4.867,0 -14.336,0.875 -20.158,2.821 -0.152,0.05 -0.311,0.076 -0.47,0.076 -0.11,0 -0.219,-0.012 -0.327,-0.036 -21.394,-4.816 -37.419,3.616 -43.813,14.103 -3.478,5.704 -4.214,11.913 -2.325,17.947 0,0 0.092,0.326 0.062,0.581 -0.002,0.02 0.002,0.063 -0.005,0.082 -0.066,0.625 -0.529,1.121 -1.177,1.251 -0.633,0.127 -1.243,-0.152 -1.554,-0.676 -0.006,-0.008 -0.017,-0.033 -0.022,-0.041 -0.17,-0.271 -0.318,-0.94 -0.318,-0.94 -1.876,-6.646 -0.983,-13.547 2.8,-19.751 5.591,-9.171 17.837,-16.918 34.305,-16.916 3.876,0 7.987,0.428 12.298,1.37 6.483,-2.069 16.082,-2.845 20.704,-2.845 4.621,0 14.22,0.776 20.714,2.845 22.614,-4.939 39.675,4.216 46.585,15.54 5.968,9.783 4.779,21.305 -3.128,30.754 -6.677,8.987 -8.447,16.99 -8.835,21.731 l 0.224,-0.012 c 1.002,-0.05 2.016,-0.103 3.041,-0.151 10.102,-0.502 18.041,2.725 20.213,8.238 C 10.084,-14.234 9.736,-8.207 0,0" /></g></g></g></g></svg>